# xmcd CD database file
#
# Track frame offsets:
#	150
#	12972
#	27082
#	39270
#	56362
#
# Disc length: 948 seconds
#
# Revision: 0
# Processed by: cddbd v1.5.1PL0 Copyright (c) Steve Scherf et al.
# Submitted via: CDex 1.51
#
DISCID=2d03b205
DTITLE=Hit The Lights - Until We Get Caught
DYEAR=2004
DGENRE=Punk Rock
TTITLE0=Until We Get Caught
TTITLE1=AT 6:00, We Go Live
TTITLE2=Save Your Breath
TTITLE3=These Backs Are Made For Stabbing
TTITLE4=Loose Lips Sink Ships
EXTD=YEAR: 2004
EXTT0=
EXTT1=
EXTT2=
EXTT3=
EXTT4=
PLAYORDER=
